<svg id="Capa_1" enable-background="new 0 0 512.364 512.364" height="512" viewBox="0 0 512.364 512.364" width="512" xmlns="http://www.w3.org/2000/svg"><g><path d="m421.932 210.523h15v15h-15z"/><path d="m421.932 240.523h15v15h-15z"/><path d="m331.431 271.023h15v15h-15z"/><path d="m512.364 511.041-52-225.018h36.568v-44.999h15v-89.981h-99.642l-17.26-24.141 6.69-38.334-34.155-18.645-10.602-37.43-38.853-2.04-25.805-29.13-35.874 15.083-35.873-15.083-25.805 29.13-38.852 2.04-10.603 37.43-34.156 18.644 6.69 38.336-17.26 24.141h-98.64v89.981h14.999v44.999h35.07l-52.001 225.017h60.395l52.001-225.018h204.035v-15h-284.5v-29.999h360.001v29.999h-30.501v15h38.537l52.001 225.018zm-463.898-15h-29.605l48.535-210.018h29.604zm433.465-225.018h-15v-29.999h15zm-354.163-174.442 30.247-16.51 9.394-33.161 34.407-1.806 22.842-25.786 31.775 13.359 31.775-13.359 22.842 25.786 34.407 1.806 9.393 33.161 30.246 16.51-5.922 33.933 14.677 20.528h-25.175c-5.753-86.958-108.908-135.027-179.182-82.927l8.934 12.05c60.533-44.879 149.497-3.993 155.219 70.877h-45.259c-8.378-58.301-95.533-58.303-103.911 0h-45.258c1.742-23.01 11.478-44.452 27.861-61.03l-10.669-10.544c-19.177 19.406-30.458 44.589-32.226 71.574h-25.171l14.677-20.528zm165.409 54.461h-73.491c7.93-38.909 65.547-38.978 73.491 0zm-276.245 74.982v-59.981h480v59.981h-30v-45h-74.999v45zm390-30h44.999v74.999h-44.999zm38.036 89.999 48.534 210.018h-29.604l-48.534-210.018z"/><path d="m31.431 181.024h15v15h-15z"/><path d="m61.431 181.024h15v15h-15z"/><path d="m91.431 61.016h15v-15h15v-15h-15v-15h-15v15h-15v15h15z"/><path d="m406.395 61.016h15v-15h15v-15h-15v-15h-15v15h-15v15h15z"/></g></svg>